<?xml version="1.0" encoding="utf-8"?>
<!-- Generator: Adobe Illustrator 16.0.0, SVG Export Plug-In . SVG Version: 6.00 Build 0)  -->
<!DOCTYPE svg PUBLIC "-//W3C//DTD SVG 1.1//EN" "http://www.w3.org/Graphics/SVG/1.1/DTD/svg11.dtd">
<svg version="1.1" id="Layer_1" xmlns="http://www.w3.org/2000/svg" xmlns:xlink="http://www.w3.org/1999/xlink" x="0px" y="0px"
	 width="162.25px" height="46px" viewBox="0 0 162.25 46" enable-background="new 0 0 162.25 46" xml:space="preserve">
<circle fill="#FFFFFF" cx="23.102" cy="23" r="22.614"/>
<g>
	<rect x="52.459" y="9.367" fill="none" width="108.374" height="27.133"/>
	<text transform="matrix(1 0 0 1 52.459 33.6426)" fill="#333333" font-family="'HelveticaNeue-UltraLight'" font-size="34">apexnet</text>
	<g>
		<path fill="#333333" d="M35.211,39.264c0-1.947-0.65-3.641-1.944-5.1c-1.287-1.538-2.99-2.26-5.171-2.26
			c-2.179,0-3.963,0.722-5.171,2.179c-1.299,1.454-1.942,3.151-1.942,5.176v6.183c0.699,0.065,1.404,0.106,2.12,0.106
			c4.459,0,8.605-1.309,12.108-3.536V39.264z"/>
		<path fill="#333333" d="M14.755,39.259c0-2.507,0.644-4.854,1.941-6.872c1.298-2.103,3.074-3.719,5.259-4.852
			c0.564-0.325,0.888-0.729,0.888-1.215c0-0.242-0.08-0.646-0.404-1.133L15.08,12.815c-0.166-0.243-0.241-0.567-0.241-0.809
			c0-0.971,0.483-1.454,1.535-1.454h2.752c0.561,0,1.047,0.159,1.452,0.483c0.405,0.326,0.809,0.732,1.132,1.296l5.417,9.379
			c0.325,0.567,0.648,0.889,0.974,0.889c0.321,0,0.645-0.322,0.972-0.889l5.416-9.379c0.323-0.564,0.726-0.97,1.132-1.296
			c0.403-0.324,0.891-0.483,1.452-0.483h2.834c0.969,0,1.455,0.483,1.455,1.454c0,0.242-0.081,0.566-0.239,0.809L33.76,25.188
			c-0.32,0.487-0.403,0.975-0.403,1.215c0,0.404,0.323,0.809,0.886,1.134c2.269,1.133,4.044,2.667,5.262,4.688
			c0.824,1.289,1.356,2.728,1.655,4.282c2.847-3.782,4.555-8.472,4.555-13.57c0-12.489-10.125-22.614-22.613-22.614
			c-12.489,0-22.614,10.125-22.614,22.614c0,9.536,5.913,17.678,14.267,21.002V39.259z"/>
	</g>
</g>
</svg>
