<?xml version="1.0" encoding="utf-8"?>
<!-- Generator: Adobe Illustrator 16.0.0, SVG Export Plug-In . SVG Version: 6.00 Build 0)  -->
<!DOCTYPE svg PUBLIC "-//W3C//DTD SVG 1.1//EN" "http://www.w3.org/Graphics/SVG/1.1/DTD/svg11.dtd">
<svg version="1.1" id="Layer_1" xmlns="http://www.w3.org/2000/svg" xmlns:xlink="http://www.w3.org/1999/xlink" x="0px" y="0px"
	 width="165px" height="46px" viewBox="0 0 165 46" enable-background="new 0 0 165 46" xml:space="preserve">
<circle fill="#FFFFFF" cx="23.102" cy="23" r="22.614"/>
<g>
	<rect x="52.459" y="9.434" fill="none" width="108.374" height="27.134"/>
	<g enable-background="new    ">
		<path fill="#333333" d="M65.957,27.862h-0.068c-0.204,0.521-0.499,1.016-0.884,1.479c-0.386,0.465-0.856,0.879-1.411,1.242
			c-0.556,0.363-1.185,0.646-1.887,0.85c-0.703,0.203-1.474,0.307-2.312,0.307c-1.859,0-3.298-0.404-4.318-1.207
			c-1.02-0.805-1.53-2.047-1.53-3.725c0-1.02,0.204-1.852,0.612-2.498c0.408-0.646,0.923-1.156,1.547-1.53
			c0.623-0.374,1.314-0.641,2.074-0.799c0.759-0.159,1.49-0.272,2.193-0.341l2.006-0.17c0.929-0.067,1.66-0.175,2.193-0.322
			c0.532-0.147,0.935-0.352,1.207-0.612s0.442-0.595,0.51-1.003c0.068-0.408,0.102-0.918,0.102-1.53
			c0-0.476-0.091-0.918-0.272-1.326c-0.182-0.407-0.465-0.77-0.85-1.088c-0.386-0.317-0.884-0.566-1.496-0.748
			c-0.612-0.181-1.36-0.271-2.244-0.271c-1.564,0-2.828,0.386-3.791,1.155c-0.963,0.771-1.491,1.938-1.581,3.503h-1.292
			c0.09-1.927,0.708-3.372,1.853-4.336c1.145-0.963,2.771-1.444,4.879-1.444c2.108,0,3.644,0.414,4.607,1.241
			c0.963,0.827,1.445,1.909,1.445,3.246v10.167c0,0.25,0.005,0.498,0.017,0.748c0.011,0.25,0.051,0.477,0.119,0.68
			c0.068,0.205,0.181,0.369,0.34,0.494c0.158,0.123,0.385,0.186,0.68,0.186c0.227,0,0.544-0.033,0.952-0.102v1.088
			c-0.34,0.092-0.691,0.137-1.054,0.137c-0.522,0-0.935-0.068-1.241-0.205c-0.306-0.135-0.539-0.316-0.697-0.543
			s-0.267-0.494-0.323-0.799c-0.057-0.307-0.085-0.641-0.085-1.004V27.862z M65.957,21.402c-0.318,0.386-0.799,0.646-1.445,0.781
			c-0.646,0.137-1.366,0.238-2.159,0.307l-2.176,0.204c-0.635,0.067-1.27,0.164-1.904,0.289c-0.635,0.125-1.207,0.334-1.717,0.629
			c-0.51,0.295-0.924,0.697-1.241,1.207c-0.318,0.51-0.476,1.174-0.476,1.988c0,1.293,0.408,2.25,1.224,2.873
			c0.816,0.625,1.938,0.936,3.366,0.936c1.473,0,2.64-0.266,3.502-0.799c0.861-0.531,1.518-1.145,1.972-1.836
			c0.453-0.691,0.742-1.359,0.867-2.006c0.125-0.646,0.187-1.082,0.187-1.309V21.402z"/>
		<path fill="#333333" d="M72.927,17.866h0.102c0.136-0.431,0.362-0.906,0.68-1.428c0.317-0.521,0.736-1.003,1.258-1.445
			s1.15-0.811,1.887-1.105c0.736-0.294,1.581-0.441,2.533-0.441c1.337,0,2.499,0.249,3.485,0.748
			c0.985,0.499,1.802,1.167,2.448,2.006c0.646,0.839,1.127,1.813,1.445,2.924c0.316,1.111,0.476,2.278,0.476,3.502
			c0,1.338-0.159,2.562-0.478,3.672c-0.318,1.111-0.801,2.07-1.448,2.873c-0.647,0.805-1.466,1.434-2.454,1.887
			c-0.988,0.455-2.153,0.682-3.493,0.682c-1.454,0-2.75-0.318-3.885-0.953s-1.965-1.666-2.488-3.094h-0.067l-0.001,9.895h-1.258
			V13.854h1.258V17.866z M79.37,30.616c1.136,0,2.119-0.215,2.948-0.646c0.829-0.43,1.511-1.008,2.045-1.732
			c0.534-0.727,0.932-1.57,1.193-2.533s0.393-1.99,0.393-3.078c0-0.997-0.125-1.978-0.375-2.94c-0.25-0.964-0.637-1.825-1.16-2.584
			c-0.521-0.76-1.197-1.372-2.027-1.837c-0.83-0.464-1.835-0.696-3.017-0.696c-1.159,0-2.148,0.227-2.966,0.68
			c-0.818,0.454-1.483,1.054-1.994,1.802c-0.512,0.748-0.881,1.604-1.108,2.567c-0.228,0.964-0.341,1.967-0.341,3.009
			c0,1.043,0.102,2.047,0.307,3.01s0.551,1.814,1.04,2.551s1.147,1.324,1.978,1.768C77.114,30.396,78.143,30.616,79.37,30.616z"/>
		<path fill="#333333" d="M90.742,22.762v0.204c0,1.021,0.137,1.996,0.41,2.924c0.271,0.93,0.676,1.746,1.209,2.449
			c0.535,0.703,1.205,1.258,2.012,1.666s1.744,0.611,2.812,0.611c1.75,0,3.137-0.459,4.159-1.377s1.728-2.193,2.114-3.824h1.292
			c-0.386,2.039-1.219,3.604-2.499,4.691c-1.281,1.088-2.975,1.633-5.083,1.633c-1.292,0-2.42-0.232-3.384-0.697
			c-0.963-0.465-1.768-1.1-2.414-1.904c-0.646-0.805-1.127-1.756-1.444-2.855s-0.476-2.283-0.476-3.554
			c0-1.225,0.164-2.397,0.492-3.52s0.822-2.107,1.479-2.958c0.657-0.85,1.479-1.53,2.465-2.04c0.986-0.51,2.147-0.765,3.485-0.765
			c1.224,0,2.306,0.227,3.246,0.68c0.941,0.454,1.729,1.071,2.363,1.854c0.635,0.781,1.117,1.688,1.445,2.72
			s0.493,2.137,0.493,3.314c0,0.114-0.006,0.244-0.017,0.392c-0.012,0.147-0.018,0.267-0.018,0.356H90.742z M103.595,21.64
			c-0.046-0.951-0.204-1.853-0.478-2.702c-0.272-0.851-0.676-1.599-1.209-2.244c-0.535-0.646-1.183-1.161-1.943-1.547
			c-0.762-0.386-1.631-0.578-2.608-0.578c-1.046,0-1.966,0.198-2.762,0.595s-1.466,0.918-2.011,1.564
			c-0.546,0.646-0.967,1.399-1.262,2.261s-0.478,1.745-0.545,2.651H103.595z"/>
		<path fill="#333333" d="M112.266,22.15l-6.393-8.296h1.803l5.473,7.31l5.509-7.31h1.666l-6.324,8.296l6.901,9.181h-1.768
			l-5.984-8.195l-6.119,8.195h-1.633L112.266,22.15z"/>
		<path fill="#333333" d="M122.601,13.854h1.292v3.739h0.068c0.227-0.657,0.549-1.24,0.969-1.751c0.42-0.51,0.906-0.946,1.462-1.309
			s1.161-0.635,1.819-0.816c0.657-0.181,1.326-0.271,2.006-0.271c1.02,0,1.887,0.125,2.602,0.374
			c0.713,0.249,1.297,0.578,1.75,0.985c0.453,0.408,0.811,0.867,1.071,1.377c0.261,0.511,0.447,1.026,0.562,1.548
			c0.113,0.521,0.181,1.025,0.203,1.513c0.023,0.487,0.035,0.913,0.035,1.275v10.812h-1.293V20.28c0-0.431-0.033-0.975-0.102-1.632
			s-0.267-1.286-0.596-1.888c-0.328-0.6-0.827-1.116-1.496-1.547c-0.668-0.43-1.592-0.646-2.771-0.646
			c-0.997,0-1.882,0.182-2.651,0.544c-0.771,0.362-1.429,0.867-1.973,1.513c-0.544,0.646-0.957,1.417-1.24,2.312
			c-0.284,0.896-0.426,1.875-0.426,2.94v9.453h-1.292V13.854z"/>
		<path fill="#333333" d="M140.723,22.762v0.204c0,1.021,0.136,1.996,0.408,2.924c0.273,0.93,0.676,1.746,1.211,2.449
			c0.533,0.703,1.204,1.258,2.012,1.666c0.806,0.408,1.744,0.611,2.812,0.611c1.749,0,3.136-0.459,4.158-1.377
			c1.023-0.918,1.728-2.193,2.114-3.824h1.292c-0.386,2.039-1.219,3.604-2.499,4.691s-2.976,1.633-5.083,1.633
			c-1.292,0-2.42-0.232-3.383-0.697c-0.964-0.465-1.769-1.1-2.414-1.904c-0.646-0.805-1.128-1.756-1.445-2.855
			c-0.318-1.1-0.477-2.283-0.477-3.554c0-1.225,0.164-2.397,0.494-3.52c0.328-1.122,0.82-2.107,1.479-2.958
			c0.657-0.85,1.479-1.53,2.465-2.04s2.147-0.765,3.484-0.765c1.225,0,2.307,0.227,3.248,0.68c0.939,0.454,1.729,1.071,2.363,1.854
			c0.634,0.781,1.115,1.688,1.444,2.72s0.493,2.137,0.493,3.314c0,0.114-0.006,0.244-0.018,0.392s-0.017,0.267-0.017,0.356H140.723z
			 M153.574,21.64c-0.045-0.951-0.205-1.853-0.477-2.702c-0.273-0.851-0.677-1.599-1.211-2.244
			c-0.534-0.646-1.182-1.161-1.943-1.547s-1.631-0.578-2.607-0.578c-1.045,0-1.967,0.198-2.762,0.595s-1.467,0.918-2.012,1.564
			c-0.545,0.646-0.965,1.399-1.261,2.261s-0.478,1.745-0.546,2.651H153.574z"/>
		<path fill="#333333" d="M164.318,14.977h-3.809v12.206c0,0.703,0.08,1.258,0.238,1.666s0.402,0.721,0.731,0.936
			c0.328,0.215,0.726,0.346,1.19,0.391c0.464,0.045,1.002,0.057,1.614,0.033v1.123c-0.657,0.045-1.298,0.039-1.921-0.018
			s-1.173-0.227-1.648-0.51c-0.477-0.283-0.856-0.709-1.14-1.275c-0.284-0.566-0.403-1.348-0.356-2.346V14.977h-3.23v-1.122h3.23
			v-5.44h1.291v5.44h3.809V14.977z"/>
	</g>
	<g>
		<path fill="#333333" d="M35.211,39.329c0-1.947-0.65-3.641-1.944-5.1c-1.287-1.539-2.99-2.26-5.171-2.26
			c-2.179,0-3.963,0.721-5.171,2.178c-1.299,1.455-1.942,3.152-1.942,5.176v6.184c0.699,0.064,1.404,0.105,2.12,0.105
			c4.459,0,8.605-1.309,12.108-3.535V39.329z"/>
		<path fill="#333333" d="M14.755,39.323c0-2.506,0.644-4.854,1.941-6.871c1.298-2.104,3.074-3.719,5.259-4.852
			c0.564-0.326,0.888-0.729,0.888-1.215c0-0.242-0.08-0.646-0.404-1.133L15.08,12.879c-0.166-0.243-0.241-0.566-0.241-0.809
			c0-0.971,0.483-1.454,1.535-1.454h2.752c0.561,0,1.047,0.159,1.452,0.483c0.405,0.325,0.809,0.731,1.132,1.296l5.417,9.379
			c0.325,0.566,0.648,0.889,0.974,0.889c0.321,0,0.645-0.322,0.972-0.889l5.416-9.379c0.323-0.564,0.726-0.971,1.132-1.296
			c0.403-0.324,0.891-0.483,1.452-0.483h2.834c0.969,0,1.455,0.483,1.455,1.454c0,0.242-0.081,0.565-0.239,0.809L33.76,25.253
			c-0.32,0.486-0.403,0.975-0.403,1.215c0,0.404,0.323,0.809,0.886,1.135c2.269,1.133,4.044,2.666,5.262,4.688
			c0.824,1.289,1.356,2.729,1.655,4.281c2.847-3.781,4.555-8.471,4.555-13.57c0-12.488-10.125-22.613-22.613-22.613
			c-12.489,0-22.614,10.125-22.614,22.613c0,9.537,5.913,17.68,14.267,21.004V39.323z"/>
	</g>
</g>
</svg>
