<?xml version="1.0" encoding="utf-8"?>
<!-- Generator: Adobe Illustrator 16.0.0, SVG Export Plug-In . SVG Version: 6.00 Build 0)  -->
<!DOCTYPE svg PUBLIC "-//W3C//DTD SVG 1.1//EN" "http://www.w3.org/Graphics/SVG/1.1/DTD/svg11.dtd">
<svg version="1.1" id="Layer_1" xmlns="http://www.w3.org/2000/svg" xmlns:xlink="http://www.w3.org/1999/xlink" x="0px" y="0px"
	 width="212.667px" height="46px" viewBox="0 0 212.667 46" enable-background="new 0 0 212.667 46" xml:space="preserve">
<g>
	<path fill="#333333" d="M65.906,23.964c0,1.306-0.419,2.403-1.254,3.344c-0.784,0.939-1.932,1.41-3.343,1.41
		c-1.41,0-2.508-0.471-3.343-1.463c-0.835-0.939-1.253-2.037-1.253-3.291c0-1.305,0.418-2.402,1.253-3.343
		c0.784-0.94,1.933-1.409,3.343-1.409c1.411,0,2.507,0.469,3.343,1.462C65.487,21.614,65.906,22.711,65.906,23.964 M69.927,30.756
		V15.712c0-2.351-0.783-4.389-2.402-6.007c-1.619-1.619-3.657-2.455-6.216-2.455c-1.097,0-2.142,0.156-3.134,0.417
		c-0.992,0.262-1.932,0.627-2.769,1.097c-0.469,0.262-0.679,0.628-0.679,1.098c0,0.209,0.052,0.366,0.104,0.47l0.679,1.202
		c0.262,0.47,0.575,0.679,0.888,0.679c0.157,0,0.366-0.053,0.574-0.156c0.68-0.366,1.359-0.627,2.038-0.836
		c0.679-0.157,1.411-0.262,2.298-0.262c1.411,0,2.507,0.471,3.343,1.463c0.835,0.94,1.254,2.036,1.254,3.291
		c0,0.312-0.104,0.521-0.314,0.626c-0.157,0.053-0.261,0.053-0.418,0c-1.201-0.574-2.455-0.836-3.865-0.836
		c-2.56,0-4.597,0.836-6.216,2.508c-1.62,1.671-2.403,3.656-2.403,5.954c0,2.352,0.783,4.388,2.403,6.008
		c1.619,1.619,3.656,2.455,6.216,2.455c0.993,0,1.88-0.104,2.611-0.365c0.68-0.21,1.359-0.471,1.934-0.836
		c0.261-0.209,0.522-0.158,0.73,0.208c0.157,0.313,0.47,0.47,0.836,0.47h1.358C69.562,31.903,69.927,31.538,69.927,30.756"/>
	<path fill="#333333" d="M89.516,23.966c0,1.304-0.419,2.401-1.255,3.341c-0.783,0.94-1.932,1.411-3.342,1.411
		s-2.508-0.471-3.343-1.463c-0.836-0.939-1.254-2.037-1.254-3.289v-8.254c0-1.306,0.418-2.403,1.254-3.344
		c0.783-0.939,1.933-1.41,3.343-1.41s2.508,0.471,3.342,1.463c0.836,0.94,1.255,2.036,1.255,3.291V23.966z M93.537,23.966v-8.254
		c0-2.351-0.784-4.389-2.402-6.007c-1.619-1.62-3.657-2.455-6.216-2.455c-2.56,0-4.597,0.835-6.216,2.507
		c-1.62,1.672-2.403,3.655-2.403,5.955v28.06c0,0.783,0.366,1.148,1.149,1.148h1.724c0.784,0,1.149-0.365,1.149-1.148V32.061
		c0-0.575,0.261-0.731,0.835-0.47c1.306,0.574,2.56,0.836,3.762,0.836c2.559,0,4.597-0.836,6.216-2.508
		C92.753,28.247,93.537,26.262,93.537,23.966"/>
	<path fill="#333333" d="M113.125,16.966c0,0.783-0.366,1.148-1.149,1.148h-6.895c-0.783,0-1.15-0.365-1.15-1.148v-1.254
		c0-1.306,0.419-2.403,1.254-3.344c0.783-0.939,1.934-1.41,3.344-1.41s2.507,0.471,3.343,1.463c0.835,0.94,1.254,2.036,1.254,3.291
		V16.966z M117.146,19.264v-3.552c0-2.351-0.783-4.389-2.402-6.007c-1.619-1.62-3.656-2.455-6.216-2.455
		c-2.561,0-4.598,0.835-6.216,2.507c-1.62,1.672-2.403,3.656-2.403,5.955v8.254c0,2.35,0.783,4.386,2.403,6.006
		c1.618,1.619,3.655,2.455,6.216,2.455c1.984,0,3.761-0.521,5.275-1.517c1.201-0.782,2.141-1.827,2.925-3.027
		c0.053-0.054,0.105-0.21,0.209-0.471v-0.261c0-0.313-0.156-0.627-0.47-0.889l-1.148-0.836c-0.262-0.157-0.471-0.262-0.732-0.262
		c-0.365,0-0.627,0.157-0.836,0.471c-0.626,0.836-1.254,1.516-1.932,1.986c-0.992,0.729-2.09,1.096-3.291,1.096
		c-1.41,0-2.508-0.471-3.344-1.463c-0.835-0.939-1.254-2.037-1.254-3.289v-1.255c0-0.783,0.367-1.149,1.15-1.149h9.768
		C116.363,21.562,117.146,20.778,117.146,19.264"/>
	<path fill="#333333" d="M140.757,30.756v-4.44c0-1.725-0.418-3.239-1.254-4.545c-0.784-1.305-1.934-2.298-3.396-3.029
		c-0.365-0.209-0.575-0.471-0.575-0.731c0-0.157,0.053-0.47,0.262-0.783l4.754-7.992c0.104-0.156,0.155-0.365,0.155-0.522
		c0-0.626-0.312-0.939-0.939-0.939h-1.827c-0.367,0-0.681,0.104-0.941,0.313c-0.261,0.208-0.522,0.47-0.73,0.835l-3.5,6.059
		c-0.209,0.366-0.419,0.575-0.627,0.575c-0.209,0-0.418-0.209-0.627-0.575l-3.5-6.059c-0.209-0.365-0.47-0.627-0.73-0.835
		c-0.262-0.209-0.575-0.313-0.941-0.313h-1.775c-0.679,0-0.992,0.313-0.992,0.939c0,0.157,0.053,0.366,0.156,0.522l4.754,7.992
		c0.208,0.313,0.261,0.574,0.261,0.731c0,0.312-0.208,0.574-0.575,0.783c-1.41,0.731-2.56,1.775-3.395,3.134
		c-0.836,1.307-1.254,2.82-1.254,4.44v4.44c0,0.782,0.366,1.147,1.149,1.147h1.724c0.783,0,1.149-0.365,1.149-1.147v-4.44
		c0-1.307,0.418-2.403,1.253-3.344c0.783-0.939,1.934-1.41,3.344-1.41s2.507,0.471,3.343,1.462c0.836,0.94,1.254,2.038,1.254,3.292
		v4.44c0,0.782,0.365,1.147,1.148,1.147h1.724C140.391,31.903,140.757,31.538,140.757,30.756"/>
	<path fill="#FFFFFF" d="M163.583,30.756V15.45c0-2.246-0.731-4.178-2.194-5.798c-1.463-1.619-3.344-2.402-5.642-2.402
		c-0.888,0-1.671,0.156-2.455,0.417c-0.731,0.262-1.411,0.574-2.089,0.94c-0.104,0.053-0.261,0.104-0.418,0.104
		c-0.262,0-0.471-0.104-0.627-0.365c-0.261-0.366-0.575-0.574-1.046-0.574c-0.781,0-1.2,0.365-1.2,1.148v21.835
		c0,0.782,0.419,1.147,1.306,1.147c0.784,0,1.149-0.365,1.149-1.147V15.45c0-1.619,0.47-2.977,1.462-4.178
		c0.992-1.149,2.299-1.725,3.918-1.725s2.925,0.575,3.918,1.775c0.991,1.15,1.462,2.508,1.462,4.127v15.306
		c0,0.782,0.418,1.147,1.307,1.147C163.216,31.903,163.583,31.538,163.583,30.756"/>
	<path fill="#FFFFFF" d="M184.735,16.547c0,1.516-0.782,2.299-2.297,2.299h-6.164c-1.516,0-2.299-0.783-2.299-2.299V15.45
		c0-1.619,0.471-2.977,1.463-4.179c0.993-1.149,2.299-1.724,3.918-1.724s2.925,0.574,3.917,1.775
		c0.993,1.15,1.462,2.508,1.462,4.127V16.547z M187.191,18.532V15.45c0-2.246-0.731-4.179-2.194-5.798
		c-1.462-1.619-3.343-2.402-5.641-2.402c-2.351,0-4.23,0.783-5.694,2.402c-1.409,1.619-2.141,3.552-2.141,5.798v8.776
		c0,2.245,0.731,4.178,2.193,5.797c1.463,1.619,3.344,2.403,5.642,2.403c1.672,0,3.134-0.419,4.388-1.254
		c0.991-0.679,1.776-1.515,2.351-2.612c0.104-0.209,0.156-0.418,0.156-0.573c0-0.472-0.156-0.784-0.521-1.045
		c-0.052,0-0.104-0.054-0.209-0.158c-0.105-0.052-0.21-0.052-0.365-0.052c-0.42,0-0.784,0.21-1.045,0.575
		c-0.575,0.835-1.148,1.462-1.724,1.881c-0.838,0.626-1.829,0.939-3.03,0.939c-1.619,0-2.925-0.574-3.918-1.776
		c-0.992-1.148-1.463-2.507-1.463-4.125v-1.099c0-1.515,0.783-2.298,2.299-2.298h8.619C186.407,20.83,187.191,20.047,187.191,18.532
		"/>
	<path fill="#FFFFFF" d="M210.749,28.718c-0.157-0.157-0.365-0.209-0.627-0.209c-0.365,0-0.731,0.157-1.149,0.47
		c-0.418,0.313-0.887,0.575-1.462,0.836c-0.522,0.209-1.149,0.313-1.829,0.313c-1.618,0-2.925-0.574-3.917-1.776
		c-0.993-1.148-1.463-2.507-1.463-4.127V12.056c0-1.516,0.783-2.299,2.299-2.299h5.379c0.784,0,1.149-0.313,1.149-0.993
		c0-0.678-0.365-0.992-1.149-0.992h-5.379c-1.516,0-2.299-0.782-2.299-2.298V2.026c0-0.784-0.418-1.149-1.306-1.149
		c-0.783,0-1.149,0.365-1.149,1.149v3.447c0,1.516-0.782,2.298-2.298,2.298h-0.784c-0.783,0-1.149,0.314-1.149,0.992
		c0,0.68,0.366,0.993,1.149,0.993h0.784c1.516,0,2.298,0.783,2.298,2.299v12.169c0,2.246,0.731,4.18,2.194,5.799
		c1.462,1.619,3.343,2.403,5.641,2.403c1.097,0,2.089-0.21,2.979-0.575c0.835-0.366,1.462-0.784,1.88-1.201
		c0.418-0.365,0.627-0.731,0.627-1.097S211.009,28.927,210.749,28.718"/>
	<path fill="#333333" d="M206.743,44.685c0.413,0.258,0.98,0.425,1.573,0.425c1.265,0,2.09-0.709,2.09-1.767
		c0-0.942-0.593-1.443-1.601-1.831c-0.837-0.348-1.276-0.631-1.276-1.276c0-0.567,0.413-1.071,1.2-1.071
		c0.619,0,1.019,0.22,1.236,0.375l0.232-0.504c-0.309-0.219-0.798-0.386-1.366-0.386c-1.199,0-1.909,0.786-1.909,1.676
		c0,0.748,0.555,1.303,1.574,1.689c0.889,0.362,1.302,0.723,1.302,1.406c0,0.645-0.464,1.172-1.443,1.172
		c-0.555,0-1.059-0.219-1.394-0.425L206.743,44.685z M198.566,44.98h0.62v-3.83c0-0.192,0.038-0.398,0.076-0.555
		c0.245-0.798,0.993-1.418,1.857-1.418c1.276,0,1.715,1.019,1.715,2.141v3.662h0.619v-3.714c0-2.321-1.573-2.617-2.166-2.617
		c-1.007,0-1.793,0.567-2.128,1.264h-0.024l-0.04-1.123h-0.581c0.04,0.491,0.052,0.917,0.052,1.484V44.98z M192.364,39.164
		c1.638,0,2.269,1.562,2.269,2.696c0,1.585-1.02,2.746-2.309,2.746c-1.264,0-2.256-1.161-2.256-2.707
		C190.068,40.57,190.776,39.164,192.364,39.164 M192.377,38.649c-1.535,0-2.928,1.174-2.928,3.287c0,1.937,1.237,3.187,2.837,3.187
		c1.38,0,2.966-0.993,2.966-3.303C195.252,39.939,194.092,38.649,192.377,38.649 M185.838,36.481c-0.284,0-0.503,0.259-0.503,0.543
		c0,0.283,0.193,0.528,0.477,0.528c0.322,0,0.517-0.245,0.517-0.528C186.328,36.728,186.122,36.481,185.838,36.481 M186.147,38.79
		h-0.619v6.19h0.619V38.79z M180.034,37.656v1.134h-1.044v0.504h1.044V43.2c0,0.633,0.104,1.162,0.388,1.484
		c0.232,0.296,0.606,0.438,1.058,0.438c0.373,0,0.657-0.064,0.863-0.155l-0.077-0.464c-0.154,0.052-0.387,0.089-0.708,0.089
		c-0.658,0-0.903-0.488-0.903-1.276v-4.022h1.767V38.79h-1.767v-1.366L180.034,37.656z M175.985,38.79h-0.619v3.856
		c0,0.245-0.051,0.49-0.116,0.683c-0.271,0.62-0.928,1.252-1.831,1.252c-1.225,0-1.638-0.968-1.638-2.308V38.79h-0.62v3.6
		c0,2.332,1.329,2.733,2.116,2.733c1.097,0,1.806-0.671,2.114-1.25h0.027l0.037,1.107h0.58c-0.037-0.477-0.051-0.966-0.051-1.509
		V38.79z M166.739,44.98h0.619v-9.156h-0.619V44.98z M160.536,39.164c1.638,0,2.269,1.562,2.269,2.696
		c0,1.585-1.018,2.746-2.308,2.746c-1.264,0-2.256-1.161-2.256-2.707C158.241,40.57,158.95,39.164,160.536,39.164 M160.549,38.649
		c-1.535,0-2.928,1.174-2.928,3.287c0,1.937,1.237,3.187,2.838,3.187c1.38,0,2.966-0.993,2.966-3.303
		C163.425,39.939,162.264,38.649,160.549,38.649 M151.109,44.685c0.413,0.258,0.98,0.425,1.573,0.425
		c1.264,0,2.088-0.709,2.088-1.767c0-0.942-0.592-1.443-1.599-1.831c-0.839-0.348-1.276-0.631-1.276-1.276
		c0-0.567,0.412-1.071,1.199-1.071c0.62,0,1.019,0.22,1.238,0.375l0.231-0.504c-0.309-0.219-0.8-0.386-1.366-0.386
		c-1.2,0-1.908,0.786-1.908,1.676c0,0.748,0.554,1.303,1.572,1.689c0.89,0.362,1.303,0.723,1.303,1.406
		c0,0.645-0.465,1.172-1.445,1.172c-0.554,0-1.057-0.219-1.393-0.425L151.109,44.685z M139.141,41.332
		c0.116-0.954,0.71-2.168,2.077-2.168c1.495,0,1.856,1.303,1.844,2.168H139.141z M143.681,41.82
		c0.026-0.116,0.026-0.205,0.026-0.372c0-0.891-0.388-2.799-2.411-2.799c-1.601,0-2.785,1.29-2.785,3.354
		c0,1.817,1.108,3.106,2.888,3.106c1.083,0,1.715-0.271,1.947-0.398l-0.155-0.478c-0.349,0.167-0.812,0.348-1.715,0.348
		c-1.29,0-2.36-0.787-2.36-2.761H143.681z M134.551,44.98h0.618v-9.156h-0.618V44.98z M130.423,36.481
		c-0.283,0-0.502,0.259-0.502,0.543c0,0.283,0.193,0.528,0.477,0.528c0.322,0,0.516-0.245,0.516-0.528
		C130.913,36.728,130.708,36.481,130.423,36.481 M130.733,38.79h-0.619v6.19h0.619V38.79z M121.86,41.356
		c0-0.219,0.039-0.386,0.078-0.541c0.296-1.032,1.16-1.651,2.062-1.651c1.406,0,2.18,1.251,2.18,2.671
		c0,1.61-0.812,2.771-2.23,2.771c-0.967,0-1.768-0.618-2.038-1.559c-0.038-0.156-0.052-0.311-0.052-0.452V41.356z M121.241,43.537
		c0,0.464-0.013,1.006-0.051,1.443h0.555l0.051-1.121h0.026c0.489,0.852,1.212,1.264,2.218,1.264c1.354,0,2.76-1.098,2.76-3.303
		c0-1.857-1.083-3.171-2.656-3.171c-1.084,0-1.845,0.502-2.257,1.303h-0.026v-4.128h-0.619V43.537z M115.052,39.164
		c1.637,0,2.27,1.562,2.27,2.696c0,1.585-1.02,2.746-2.309,2.746c-1.264,0-2.257-1.161-2.257-2.707
		C112.756,40.57,113.464,39.164,115.052,39.164 M115.064,38.649c-1.534,0-2.929,1.174-2.929,3.287c0,1.937,1.238,3.187,2.838,3.187
		c1.381,0,2.967-0.993,2.967-3.303C117.94,39.939,116.779,38.649,115.064,38.649 M100.351,44.98h0.619v-3.816
		c0-0.206,0.037-0.426,0.09-0.594c0.231-0.723,0.889-1.393,1.715-1.393c1.006,0,1.534,0.812,1.534,1.934v3.869h0.618v-3.973
		c0-0.218,0.053-0.425,0.104-0.604c0.245-0.658,0.851-1.226,1.625-1.226c1.07,0,1.612,0.825,1.612,2.218v3.585h0.619v-3.648
		c0-2.347-1.419-2.683-2.025-2.683c-0.658,0-1.07,0.18-1.471,0.515c-0.231,0.194-0.465,0.465-0.631,0.839h-0.026
		c-0.271-0.786-0.929-1.354-1.78-1.354c-1.019,0-1.611,0.528-2.012,1.237h-0.025l-0.039-1.097h-0.58
		c0.039,0.491,0.053,0.917,0.053,1.484V44.98z"/>
</g>
<circle fill="#FFFFFF" cx="23.102" cy="23" r="22.614"/>
<g>
	<path fill="#333333" d="M35.211,39.329c0-1.947-0.65-3.642-1.944-5.101c-1.287-1.539-2.99-2.26-5.171-2.26
		c-2.179,0-3.963,0.721-5.171,2.178c-1.299,1.455-1.942,3.152-1.942,5.177v6.184c0.699,0.063,1.404,0.104,2.12,0.104
		c4.459,0,8.605-1.309,12.108-3.534V39.329z"/>
	<path fill="#333333" d="M14.755,39.323c0-2.507,0.644-4.854,1.941-6.871c1.298-2.104,3.074-3.72,5.259-4.853
		c0.564-0.326,0.888-0.729,0.888-1.215c0-0.242-0.08-0.646-0.404-1.133L15.08,12.879c-0.166-0.243-0.241-0.566-0.241-0.809
		c0-0.971,0.483-1.454,1.535-1.454h2.752c0.561,0,1.047,0.159,1.452,0.483c0.405,0.325,0.809,0.731,1.132,1.296l5.417,9.379
		c0.325,0.566,0.648,0.889,0.974,0.889c0.321,0,0.645-0.322,0.972-0.889l5.416-9.379c0.323-0.564,0.726-0.971,1.132-1.296
		c0.403-0.324,0.891-0.483,1.452-0.483h2.834c0.969,0,1.455,0.483,1.455,1.454c0,0.242-0.081,0.565-0.239,0.809L33.76,25.253
		c-0.32,0.486-0.403,0.976-0.403,1.215c0,0.404,0.323,0.81,0.886,1.136c2.269,1.133,4.044,2.666,5.262,4.688
		c0.824,1.289,1.356,2.729,1.655,4.281c2.847-3.781,4.555-8.471,4.555-13.57c0-12.488-10.125-22.613-22.613-22.613
		c-12.489,0-22.614,10.125-22.614,22.613c0,9.537,5.913,17.68,14.267,21.004V39.323z"/>
</g>
</svg>
