<?xml version="1.0" encoding="utf-8"?>
<!-- Generator: Adobe Illustrator 16.0.0, SVG Export Plug-In . SVG Version: 6.00 Build 0)  -->
<!DOCTYPE svg PUBLIC "-//W3C//DTD SVG 1.1//EN" "http://www.w3.org/Graphics/SVG/1.1/DTD/svg11.dtd">
<svg version="1.1" id="Layer_1" xmlns="http://www.w3.org/2000/svg" xmlns:xlink="http://www.w3.org/1999/xlink" x="0px" y="0px"
	 width="268px" height="46px" viewBox="0 0 268 46" enable-background="new 0 0 268 46" xml:space="preserve">
<g>
	<g>
		<path d="M57.613,32.464l-0.918-3.008h-0.156c-1.043,1.314-2.09,2.21-3.145,2.686c-1.055,0.475-2.41,0.713-4.062,0.713
			c-2.123,0-3.779-0.573-4.971-1.719c-1.191-1.146-1.787-2.768-1.787-4.863c0-2.227,0.826-3.906,2.48-5.039
			c1.652-1.133,4.172-1.751,7.559-1.855l3.73-0.117v-1.152c0-1.38-0.322-2.412-0.967-3.096s-1.645-1.025-2.998-1.025
			c-1.107,0-2.168,0.163-3.184,0.488c-1.016,0.326-1.992,0.71-2.93,1.152l-1.484-3.281c1.172-0.612,2.453-1.077,3.848-1.396
			c1.393-0.319,2.707-0.479,3.945-0.479c2.746,0,4.82,0.599,6.221,1.797c1.398,1.198,2.1,3.08,2.1,5.645v14.551H57.613z
			 M50.777,29.339c1.666,0,3.004-0.466,4.014-1.396c1.008-0.932,1.514-2.236,1.514-3.916v-1.875l-2.773,0.117
			c-2.162,0.078-3.734,0.439-4.717,1.084c-0.984,0.645-1.475,1.631-1.475,2.959c0,0.963,0.285,1.709,0.859,2.236
			C48.771,29.075,49.631,29.339,50.777,29.339z"/>
		<path d="M78.258,32.854c-2.734,0-4.857-0.983-6.367-2.949h-0.273c0.182,1.822,0.273,2.93,0.273,3.32v5.848h-4.59V10.862h3.711
			c0.104,0.404,0.318,1.367,0.645,2.891h0.234c1.432-2.188,3.58-3.281,6.445-3.281c2.695,0,4.795,0.977,6.299,2.93
			s2.256,4.694,2.256,8.223s-0.766,6.282-2.295,8.262C83.064,31.864,80.953,32.854,78.258,32.854z M77.145,14.222
			c-1.824,0-3.154,0.534-3.994,1.602c-0.84,1.068-1.26,2.773-1.26,5.117v0.684c0,2.63,0.416,4.534,1.25,5.713
			c0.832,1.178,2.193,1.768,4.082,1.768c1.588,0,2.812-0.651,3.672-1.953c0.859-1.303,1.289-3.157,1.289-5.566
			c0-2.422-0.428-4.254-1.279-5.498C80.051,14.844,78.797,14.222,77.145,14.222z"/>
		<path d="M101.656,32.854c-3.359,0-5.986-0.98-7.881-2.939c-1.895-1.96-2.842-4.658-2.842-8.096c0-3.528,0.879-6.302,2.637-8.32
			c1.758-2.018,4.172-3.027,7.246-3.027c2.852,0,5.104,0.866,6.758,2.598c1.652,1.732,2.48,4.115,2.48,7.148v2.48H95.66
			c0.064,2.096,0.631,3.707,1.699,4.834c1.066,1.126,2.57,1.689,4.512,1.689c1.275,0,2.463-0.121,3.564-0.361
			c1.1-0.241,2.281-0.642,3.545-1.201v3.73c-1.121,0.533-2.254,0.911-3.398,1.133C104.436,32.743,103.127,32.854,101.656,32.854z
			 M100.816,13.948c-1.459,0-2.627,0.462-3.506,1.387c-0.879,0.925-1.404,2.272-1.572,4.043h9.805
			c-0.027-1.784-0.457-3.135-1.289-4.053C103.42,14.407,102.273,13.948,100.816,13.948z"/>
		<path d="M120.074,21.429l-7.246-10.566h5.234l4.922,7.559l4.961-7.559h5.195l-7.266,10.566l7.637,11.035h-5.195l-5.332-8.086
			l-5.312,8.086h-5.195L120.074,21.429z"/>
		<path d="M152.379,32.464v-13.77c0-2.135-0.449-3.688-1.348-4.658c-0.898-0.97-2.293-1.455-4.18-1.455
			c-2.539,0-4.398,0.642-5.576,1.924c-1.18,1.283-1.768,3.363-1.768,6.24v11.719h-1.934v-21.23h1.641l0.371,2.91h0.117
			c1.379-2.213,3.834-3.32,7.363-3.32c4.816,0,7.227,2.585,7.227,7.754v13.887H152.379z"/>
		<path d="M169.742,32.854c-3.086,0-5.492-0.951-7.217-2.852c-1.727-1.901-2.588-4.564-2.588-7.988c0-3.385,0.832-6.097,2.5-8.135
			c1.666-2.038,3.912-3.057,6.738-3.057c2.5,0,4.473,0.873,5.918,2.617c1.445,1.745,2.168,4.115,2.168,7.109v1.562h-15.293
			c0.025,2.916,0.705,5.143,2.041,6.68c1.334,1.536,3.244,2.305,5.732,2.305c1.211,0,2.275-0.085,3.193-0.254
			c0.918-0.17,2.08-0.534,3.486-1.094v1.758c-1.199,0.521-2.305,0.875-3.32,1.064C172.086,32.759,170.965,32.854,169.742,32.854z
			 M169.176,12.542c-2.045,0-3.686,0.674-4.922,2.021c-1.238,1.348-1.961,3.291-2.168,5.83h13.125c0-2.461-0.535-4.385-1.602-5.771
			C172.541,13.235,171.062,12.542,169.176,12.542z"/>
		<path d="M188.727,31.136c1.223,0,2.291-0.104,3.203-0.312v1.562c-0.938,0.312-2.02,0.469-3.242,0.469
			c-1.875,0-3.26-0.502-4.15-1.504c-0.893-1.003-1.338-2.578-1.338-4.727V12.913h-3.145V11.78l3.145-0.879l0.977-4.805h0.996v5.137
			h6.23v1.68h-6.23v13.438c0,1.627,0.285,2.832,0.859,3.613C186.604,30.745,187.502,31.136,188.727,31.136z"/>
	</g>
	<g>
		<circle cx="18.614" cy="23.112" r="18.125"/>
		<path fill="#FFFFFF" d="M26.304,32.399V28.44c0-1.538-0.373-2.891-1.117-4.056c-0.702-1.164-1.725-2.049-3.032-2.702
			c-0.325-0.187-0.511-0.419-0.511-0.653c0-0.138,0.048-0.418,0.232-0.699l4.242-7.13c0.092-0.139,0.138-0.326,0.138-0.466
			c0-0.559-0.279-0.838-0.838-0.838h-1.633c-0.323,0-0.604,0.092-0.837,0.279c-0.233,0.187-0.466,0.421-0.652,0.746l-3.121,5.405
			c-0.188,0.327-0.375,0.512-0.561,0.512s-0.373-0.185-0.56-0.512l-3.122-5.405c-0.186-0.325-0.419-0.559-0.652-0.746
			c-0.234-0.187-0.514-0.279-0.837-0.279h-1.586c-0.606,0-0.885,0.279-0.885,0.838c0,0.14,0.044,0.327,0.139,0.466l4.241,7.13
			c0.187,0.281,0.233,0.513,0.233,0.653c0,0.28-0.187,0.512-0.512,0.699c-1.259,0.653-2.283,1.585-3.031,2.796
			c-0.747,1.164-1.118,2.516-1.118,3.961v3.959c0,0.701,0.326,1.027,1.025,1.027h1.539c0.697,0,1.024-0.326,1.024-1.027V28.44
			c0-1.166,0.372-2.145,1.12-2.983c0.696-0.839,1.724-1.257,2.98-1.257s2.238,0.418,2.98,1.304c0.746,0.84,1.12,1.817,1.12,2.937
			v3.959c0,0.701,0.327,1.027,1.025,1.027h1.539C25.977,33.427,26.304,33.101,26.304,32.399"/>
	</g>
</g>
<line fill="none" stroke="#000000" stroke-miterlimit="10" x1="201.93" y1="0.038" x2="201.93" y2="46.037"/>
<text transform="matrix(1 0 0 1 211.9297 19.9771)"><tspan x="0" y="0" font-family="'OpenSans-Light'" font-size="10">MOBILE</tspan><tspan x="0" y="12" font-family="'OpenSans-Light'" font-size="10">SOLUTIONS</tspan></text>
</svg>
